<svg width="1600" height="900" viewBox="0 0 1600 900" fill="none" xmlns="http://www.w3.org/2000/svg">
  <defs>
    <linearGradient id="bg-wulong" x1="0" y1="0" x2="1" y2="1">
      <stop offset="0%" stop-color="#F9F0E1"/>
      <stop offset="50%" stop-color="#EDE0C7"/>
      <stop offset="100%" stop-color="#DDC79E"/>
    </linearGradient>
    <linearGradient id="steam" x1="0" y1="0" x2="0" y2="1">
      <stop offset="0%" stop-color="#C2872A" stop-opacity="0.5"/>
      <stop offset="100%" stop-color="#C2872A" stop-opacity="0"/>
    </linearGradient>
  </defs>
  <rect width="1600" height="900" fill="url(#bg-wulong)"/>
  <g opacity="0.14">
    <circle cx="330" cy="180" r="150" fill="#B3771D"/>
    <circle cx="1340" cy="760" r="210" fill="#C2872A"/>
  </g>
  <g transform="translate(520 260)">
    <ellipse cx="280" cy="320" rx="280" ry="120" fill="#F7E7C9" stroke="#E0CDA7" stroke-width="3"/>
    <ellipse cx="280" cy="300" rx="240" ry="90" fill="#EBD7AF"/>
    <ellipse cx="280" cy="280" rx="180" ry="70" fill="#D8A64B"/>
    <rect x="80" y="140" width="400" height="140" rx="70" fill="#B3771D" opacity="0.7"/>
    <rect x="130" y="110" width="300" height="110" rx="55" fill="#8A5A1A" opacity="0.8"/>
    <rect x="170" y="80" width="220" height="100" rx="50" fill="#5E3A0F" opacity="0.8"/>
    <rect x="220" y="40" width="120" height="90" rx="60" fill="url(#steam)"/>
    <rect x="270" y="20" width="80" height="100" rx="60" fill="url(#steam)"/>
    <rect x="250" y="10" width="80" height="90" rx="60" fill="url(#steam)" opacity="0.6"/>
  </g>
  <text x="800" y="170" text-anchor="middle" fill="#2B1C13" font-family="serif" font-size="44" letter-spacing="5">WULONG · 乌龙</text>
  <text x="800" y="220" text-anchor="middle" fill="#6A5340" font-family="sans-serif" font-size="18" letter-spacing="3">Rock Oolong Placeholder</text>
</svg>
